<svg width="25" height="25" viewBox="0 0 25 25" fill="none" xmlns="http://www.w3.org/2000/svg">
<g clip-path="url(#clip0_20_3309)">
<path fill-rule="evenodd" clip-rule="evenodd" d="M16.4117 12.1149C16.5992 12.3024 16.7045 12.5567 16.7045 12.8219C16.7045 13.087 16.5992 13.3413 16.4117 13.5289L10.7547 19.1859C10.6625 19.2814 10.5522 19.3576 10.4302 19.41C10.3082 19.4624 10.1769 19.49 10.0442 19.4911C9.91137 19.4923 9.77969 19.467 9.6568 19.4167C9.5339 19.3664 9.42225 19.2921 9.32835 19.1983C9.23446 19.1044 9.16021 18.9927 9.10993 18.8698C9.05965 18.7469 9.03435 18.6152 9.0355 18.4825C9.03665 18.3497 9.06424 18.2185 9.11665 18.0965C9.16906 17.9745 9.24524 17.8641 9.34075 17.7719L14.2908 12.8219L9.34075 7.87186C9.15859 7.68326 9.0578 7.43066 9.06008 7.16846C9.06235 6.90626 9.16752 6.65545 9.35293 6.47004C9.53834 6.28464 9.78915 6.17947 10.0513 6.17719C10.3135 6.17491 10.5661 6.2757 10.7547 6.45786L16.4117 12.1149Z" fill="#D9D9D9"/>
</g>
<defs>
<clipPath id="clip0_20_3309">
<rect width="24" height="24" fill="white" transform="translate(0.882324 0.668945)"/>
</clipPath>
</defs>
</svg>
