<svg width="18" height="19" viewBox="0 0 18 19" fill="none" xmlns="http://www.w3.org/2000/svg">
<g clip-path="url(#clip0_69_261)">
<path d="M16.125 3.02008H14.5V4.02008H16V15.0201H2.00001V4.02008H3.50001V3.02008H1.87501C1.75813 3.02203 1.64277 3.04699 1.53554 3.09353C1.42831 3.14008 1.33129 3.20729 1.25004 3.29133C1.16878 3.37537 1.10488 3.47459 1.06198 3.58333C1.01908 3.69207 0.99802 3.8082 1.00001 3.92508V15.1151C0.99802 15.232 1.01908 15.3481 1.06198 15.4568C1.10488 15.5656 1.16878 15.6648 1.25004 15.7488C1.33129 15.8329 1.42831 15.9001 1.53554 15.9466C1.64277 15.9932 1.75813 16.0181 1.87501 16.0201H16.125C16.2419 16.0181 16.3572 15.9932 16.4645 15.9466C16.5717 15.9001 16.6687 15.8329 16.75 15.7488C16.8312 15.6648 16.8951 15.5656 16.938 15.4568C16.9809 15.3481 17.002 15.232 17 15.1151V3.92508C17.002 3.8082 16.9809 3.69207 16.938 3.58333C16.8951 3.47459 16.8312 3.37537 16.75 3.29133C16.6687 3.20729 16.5717 3.14008 16.4645 3.09353C16.3572 3.04699 16.2419 3.02203 16.125 3.02008Z" fill="#2C2C2D"/>
<path d="M4 7.02002H5V8.02002H4V7.02002Z" fill="#2C2C2D"/>
<path d="M7 7.02002H8V8.02002H7V7.02002Z" fill="#2C2C2D"/>
<path d="M10 7.02002H11V8.02002H10V7.02002Z" fill="#2C2C2D"/>
<path d="M13 7.02002H14V8.02002H13V7.02002Z" fill="#2C2C2D"/>
<path d="M4 9.52002H5V10.52H4V9.52002Z" fill="#2C2C2D"/>
<path d="M7 9.52002H8V10.52H7V9.52002Z" fill="#2C2C2D"/>
<path d="M10 9.52002H11V10.52H10V9.52002Z" fill="#2C2C2D"/>
<path d="M13 9.52002H14V10.52H13V9.52002Z" fill="#2C2C2D"/>
<path d="M4 12.02H5V13.02H4V12.02Z" fill="#2C2C2D"/>
<path d="M7 12.02H8V13.02H7V12.02Z" fill="#2C2C2D"/>
<path d="M10 12.02H11V13.02H10V12.02Z" fill="#2C2C2D"/>
<path d="M13 12.02H14V13.02H13V12.02Z" fill="#2C2C2D"/>
<path d="M5 5.02008C5.13261 5.02008 5.25979 4.9674 5.35355 4.87363C5.44732 4.77987 5.5 4.65269 5.5 4.52008V1.52008C5.5 1.38747 5.44732 1.2603 5.35355 1.16653C5.25979 1.07276 5.13261 1.02008 5 1.02008C4.86739 1.02008 4.74021 1.07276 4.64645 1.16653C4.55268 1.2603 4.5 1.38747 4.5 1.52008V4.52008C4.5 4.65269 4.55268 4.77987 4.64645 4.87363C4.74021 4.9674 4.86739 5.02008 5 5.02008Z" fill="#2C2C2D"/>
<path d="M13 5.02008C13.1326 5.02008 13.2598 4.9674 13.3536 4.87363C13.4473 4.77987 13.5 4.65269 13.5 4.52008V1.52008C13.5 1.38747 13.4473 1.2603 13.3536 1.16653C13.2598 1.07276 13.1326 1.02008 13 1.02008C12.8674 1.02008 12.7402 1.07276 12.6464 1.16653C12.5527 1.2603 12.5 1.38747 12.5 1.52008V4.52008C12.5 4.65269 12.5527 4.77987 12.6464 4.87363C12.7402 4.9674 12.8674 5.02008 13 5.02008Z" fill="#2C2C2D"/>
<path d="M6.5 3.02008H11.5V4.02008H6.5V3.02008Z" fill="#2C2C2D"/>
</g>
<defs>
<clipPath id="clip0_69_261">
<rect width="18" height="18" fill="white" transform="translate(0 0.0200806)"/>
</clipPath>
</defs>
</svg>
