<svg width="25" height="25" viewBox="0 0 25 25" fill="none" xmlns="http://www.w3.org/2000/svg">
<g clip-path="url(#clip0_20_4034)">
<path fill-rule="evenodd" clip-rule="evenodd" d="M13.207 16.3005C13.0194 16.488 12.7651 16.5933 12.5 16.5933C12.2348 16.5933 11.9805 16.488 11.793 16.3005L6.13598 10.6435C6.04047 10.5512 5.96428 10.4409 5.91188 10.3189C5.85947 10.1969 5.83188 10.0657 5.83073 9.93288C5.82957 9.8001 5.85487 9.66843 5.90516 9.54553C5.95544 9.42263 6.02969 9.31098 6.12358 9.21709C6.21747 9.12319 6.32913 9.04894 6.45202 8.99866C6.57492 8.94838 6.7066 8.92308 6.83938 8.92423C6.97216 8.92539 7.10338 8.95297 7.22538 9.00538C7.34739 9.05779 7.45773 9.13397 7.54998 9.22948L12.5 14.1795L17.45 9.22948C17.6386 9.04732 17.8912 8.94653 18.1534 8.94881C18.4156 8.95109 18.6664 9.05626 18.8518 9.24166C19.0372 9.42707 19.1424 9.67788 19.1447 9.94008C19.1469 10.2023 19.0461 10.4549 18.864 10.6435L13.207 16.3005Z" fill="#2C2C2D"/>
</g>
<defs>
<clipPath id="clip0_20_4034">
<rect width="24" height="24" fill="white" transform="translate(0.5 0.593506)"/>
</clipPath>
</defs>
</svg>
