<svg width="77" height="36" viewBox="0 0 77 36" fill="none" xmlns="http://www.w3.org/2000/svg">
<path d="M71.382 32.3224V23.7784H73.286V26.1304L73.062 25.4424C73.318 24.8664 73.718 24.429 74.262 24.1304C74.8166 23.8317 75.5046 23.6824 76.326 23.6824V25.5864C76.2406 25.565 76.1606 25.5544 76.086 25.5544C76.0113 25.5437 75.9366 25.5384 75.862 25.5384C75.1046 25.5384 74.502 25.7624 74.054 26.2104C73.606 26.6477 73.382 27.3037 73.382 28.1784V32.3224H71.382Z" fill="#F4F4F4"/>
<path d="M64.9095 32.4344C64.0348 32.4344 63.2561 32.2477 62.5735 31.8744C61.8908 31.4904 61.3521 30.9677 60.9575 30.3064C60.5628 29.645 60.3655 28.893 60.3655 28.0504C60.3655 27.197 60.5628 26.445 60.9575 25.7944C61.3521 25.133 61.8908 24.6157 62.5735 24.2424C63.2561 23.869 64.0348 23.6824 64.9095 23.6824C65.7948 23.6824 66.5788 23.869 67.2615 24.2424C67.9548 24.6157 68.4935 25.1277 68.8775 25.7784C69.2721 26.429 69.4695 27.1864 69.4695 28.0504C69.4695 28.893 69.2721 29.645 68.8775 30.3064C68.4935 30.9677 67.9548 31.4904 67.2615 31.8744C66.5788 32.2477 65.7948 32.4344 64.9095 32.4344ZM64.9095 30.7224C65.4001 30.7224 65.8375 30.6157 66.2215 30.4024C66.6055 30.189 66.9041 29.8797 67.1175 29.4744C67.3415 29.069 67.4535 28.5944 67.4535 28.0504C67.4535 27.4957 67.3415 27.021 67.1175 26.6264C66.9041 26.221 66.6055 25.9117 66.2215 25.6984C65.8375 25.485 65.4055 25.3784 64.9255 25.3784C64.4348 25.3784 63.9975 25.485 63.6135 25.6984C63.2401 25.9117 62.9415 26.221 62.7175 26.6264C62.4935 27.021 62.3815 27.4957 62.3815 28.0504C62.3815 28.5944 62.4935 29.069 62.7175 29.4744C62.9415 29.8797 63.2401 30.189 63.6135 30.4024C63.9975 30.6157 64.4295 30.7224 64.9095 30.7224Z" fill="#F4F4F4"/>
<path d="M57.7855 32.4344C56.8468 32.4344 56.1215 32.1944 55.6095 31.7144C55.0975 31.2237 54.8415 30.5037 54.8415 29.5544V21.8904H56.8415V29.5064C56.8415 29.9117 56.9428 30.2264 57.1455 30.4504C57.3588 30.6744 57.6521 30.7864 58.0255 30.7864C58.4735 30.7864 58.8468 30.669 59.1455 30.4344L59.7055 31.8584C59.4708 32.0504 59.1828 32.1944 58.8415 32.2904C58.5001 32.3864 58.1481 32.4344 57.7855 32.4344ZM53.4335 25.4424V23.8424H59.1295V25.4424H53.4335Z" fill="#F4F4F4"/>
<path d="M49.0832 32.4344C48.1872 32.4344 47.3872 32.2477 46.6832 31.8744C45.9899 31.4904 45.4459 30.9677 45.0512 30.3064C44.6566 29.645 44.4592 28.893 44.4592 28.0504C44.4592 27.197 44.6566 26.445 45.0512 25.7944C45.4459 25.133 45.9899 24.6157 46.6832 24.2424C47.3872 23.869 48.1872 23.6824 49.0832 23.6824C49.9152 23.6824 50.6459 23.853 51.2752 24.1944C51.9152 24.525 52.4006 25.0157 52.7312 25.6664L51.1952 26.5624C50.9392 26.157 50.6246 25.8584 50.2512 25.6664C49.8886 25.4744 49.4939 25.3784 49.0672 25.3784C48.5766 25.3784 48.1339 25.485 47.7392 25.6984C47.3446 25.9117 47.0352 26.221 46.8112 26.6264C46.5872 27.021 46.4752 27.4957 46.4752 28.0504C46.4752 28.605 46.5872 29.085 46.8112 29.4904C47.0352 29.885 47.3446 30.189 47.7392 30.4024C48.1339 30.6157 48.5766 30.7224 49.0672 30.7224C49.4939 30.7224 49.8886 30.6264 50.2512 30.4344C50.6246 30.2424 50.9392 29.9437 51.1952 29.5384L52.7312 30.4344C52.4006 31.0744 51.9152 31.5704 51.2752 31.9224C50.6459 32.2637 49.9152 32.4344 49.0832 32.4344Z" fill="#F4F4F4"/>
<path d="M39.2261 32.4344C38.2768 32.4344 37.4448 32.2477 36.7301 31.8744C36.0261 31.4904 35.4768 30.9677 35.0821 30.3064C34.6981 29.645 34.5061 28.893 34.5061 28.0504C34.5061 27.197 34.6928 26.445 35.0661 25.7944C35.4501 25.133 35.9728 24.6157 36.6341 24.2424C37.3061 23.869 38.0688 23.6824 38.9221 23.6824C39.7541 23.6824 40.4954 23.8637 41.1461 24.2264C41.7968 24.589 42.3088 25.101 42.6821 25.7624C43.0554 26.4237 43.2421 27.2024 43.2421 28.0984C43.2421 28.1837 43.2368 28.2797 43.2261 28.3864C43.2261 28.493 43.2208 28.5944 43.2101 28.6904H36.0901V27.3624H42.1541L41.3701 27.7784C41.3808 27.2877 41.2794 26.8557 41.0661 26.4824C40.8528 26.109 40.5594 25.8157 40.1861 25.6024C39.8234 25.389 39.4021 25.2824 38.9221 25.2824C38.4314 25.2824 37.9994 25.389 37.6261 25.6024C37.2634 25.8157 36.9754 26.1144 36.7621 26.4984C36.5594 26.8717 36.4581 27.3144 36.4581 27.8264V28.1464C36.4581 28.6584 36.5754 29.1117 36.8101 29.5064C37.0448 29.901 37.3754 30.205 37.8021 30.4184C38.2288 30.6317 38.7194 30.7384 39.2741 30.7384C39.7541 30.7384 40.1861 30.6637 40.5701 30.5144C40.9541 30.365 41.2954 30.1304 41.5941 29.8104L42.6661 31.0424C42.2821 31.4904 41.7968 31.837 41.2101 32.0824C40.6341 32.317 39.9728 32.4344 39.2261 32.4344Z" fill="#F4F4F4"/>
<path d="M31.9261 32.4344C30.9874 32.4344 30.2621 32.1944 29.7501 31.7144C29.2381 31.2237 28.9821 30.5037 28.9821 29.5544V21.8904H30.9821V29.5064C30.9821 29.9117 31.0834 30.2264 31.2861 30.4504C31.4994 30.6744 31.7928 30.7864 32.1661 30.7864C32.6141 30.7864 32.9874 30.669 33.2861 30.4344L33.8461 31.8584C33.6114 32.0504 33.3234 32.1944 32.9821 32.2904C32.6408 32.3864 32.2888 32.4344 31.9261 32.4344ZM27.5741 25.4424V23.8424H33.2701V25.4424H27.5741Z" fill="#F4F4F4"/>
<path d="M22.2376 32.4344C21.3629 32.4344 20.5843 32.2477 19.9016 31.8744C19.2189 31.4904 18.6803 30.9677 18.2856 30.3064C17.8909 29.645 17.6936 28.893 17.6936 28.0504C17.6936 27.197 17.8909 26.445 18.2856 25.7944C18.6803 25.133 19.2189 24.6157 19.9016 24.2424C20.5843 23.869 21.3629 23.6824 22.2376 23.6824C23.1229 23.6824 23.9069 23.869 24.5896 24.2424C25.2829 24.6157 25.8216 25.1277 26.2056 25.7784C26.6003 26.429 26.7976 27.1864 26.7976 28.0504C26.7976 28.893 26.6003 29.645 26.2056 30.3064C25.8216 30.9677 25.2829 31.4904 24.5896 31.8744C23.9069 32.2477 23.1229 32.4344 22.2376 32.4344ZM22.2376 30.7224C22.7283 30.7224 23.1656 30.6157 23.5496 30.4024C23.9336 30.189 24.2323 29.8797 24.4456 29.4744C24.6696 29.069 24.7816 28.5944 24.7816 28.0504C24.7816 27.4957 24.6696 27.021 24.4456 26.6264C24.2323 26.221 23.9336 25.9117 23.5496 25.6984C23.1656 25.485 22.7336 25.3784 22.2536 25.3784C21.7629 25.3784 21.3256 25.485 20.9416 25.6984C20.5683 25.9117 20.2696 26.221 20.0456 26.6264C19.8216 27.021 19.7096 27.4957 19.7096 28.0504C19.7096 28.5944 19.8216 29.069 20.0456 29.4744C20.2696 29.8797 20.5683 30.189 20.9416 30.4024C21.3256 30.6157 21.7576 30.7224 22.2376 30.7224Z" fill="#F4F4F4"/>
<path d="M11.8351 32.3224V23.7784H13.7391V26.1304L13.5151 25.4424C13.7711 24.8664 14.1711 24.429 14.7151 24.1304C15.2698 23.8317 15.9577 23.6824 16.7791 23.6824V25.5864C16.6937 25.565 16.6137 25.5544 16.5391 25.5544C16.4644 25.5437 16.3897 25.5384 16.3151 25.5384C15.5577 25.5384 14.9551 25.7624 14.5071 26.2104C14.0591 26.6477 13.8351 27.3037 13.8351 28.1784V32.3224H11.8351Z" fill="#F4F4F4"/>
<path d="M5.60233 32.4344C4.909 32.4344 4.27433 32.2744 3.69833 31.9544C3.133 31.6344 2.67967 31.1544 2.33833 30.5144C2.00767 29.8637 1.84233 29.0424 1.84233 28.0504C1.84233 27.0477 2.00233 26.2264 2.32233 25.5864C2.653 24.9464 3.101 24.4717 3.66633 24.1624C4.23167 23.8424 4.877 23.6824 5.60233 23.6824C6.445 23.6824 7.18633 23.8637 7.82633 24.2264C8.477 24.589 8.989 25.0957 9.36233 25.7464C9.74633 26.397 9.93833 27.165 9.93833 28.0504C9.93833 28.9357 9.74633 29.709 9.36233 30.3704C8.989 31.021 8.477 31.5277 7.82633 31.8904C7.18633 32.253 6.445 32.4344 5.60233 32.4344ZM0.866333 35.4264V23.7784H2.77033V25.7944L2.70633 28.0664L2.86633 30.3384V35.4264H0.866333ZM5.37833 30.7224C5.85833 30.7224 6.285 30.6157 6.65833 30.4024C7.04233 30.189 7.34633 29.8797 7.57033 29.4744C7.79433 29.069 7.90633 28.5944 7.90633 28.0504C7.90633 27.4957 7.79433 27.021 7.57033 26.6264C7.34633 26.221 7.04233 25.9117 6.65833 25.6984C6.285 25.485 5.85833 25.3784 5.37833 25.3784C4.89833 25.3784 4.46633 25.485 4.08233 25.6984C3.69833 25.9117 3.39433 26.221 3.17033 26.6264C2.94633 27.021 2.83433 27.4957 2.83433 28.0504C2.83433 28.5944 2.94633 29.069 3.17033 29.4744C3.39433 29.8797 3.69833 30.189 4.08233 30.4024C4.46633 30.6157 4.89833 30.7224 5.37833 30.7224Z" fill="#F4F4F4"/>
<path d="M68.5152 12.4344C67.5658 12.4344 66.7338 12.2477 66.0192 11.8744C65.3152 11.4904 64.7658 10.9677 64.3712 10.3064C63.9872 9.64504 63.7952 8.89304 63.7952 8.05037C63.7952 7.19704 63.9818 6.44504 64.3552 5.79437C64.7392 5.13304 65.2618 4.61571 65.9232 4.24237C66.5952 3.86904 67.3578 3.68237 68.2112 3.68237C69.0432 3.68237 69.7845 3.86371 70.4352 4.22637C71.0858 4.58904 71.5978 5.10104 71.9712 5.76237C72.3445 6.42371 72.5312 7.20237 72.5312 8.09837C72.5312 8.18371 72.5258 8.27971 72.5152 8.38637C72.5152 8.49304 72.5098 8.59437 72.4992 8.69037H65.3792V7.36237H71.4432L70.6592 7.77837C70.6698 7.28771 70.5685 6.85571 70.3552 6.48237C70.1418 6.10904 69.8485 5.81571 69.4752 5.60237C69.1125 5.38904 68.6912 5.28237 68.2112 5.28237C67.7205 5.28237 67.2885 5.38904 66.9152 5.60237C66.5525 5.81571 66.2645 6.11437 66.0512 6.49837C65.8485 6.87171 65.7472 7.31437 65.7472 7.82637V8.14637C65.7472 8.65837 65.8645 9.11171 66.0992 9.50637C66.3338 9.90104 66.6645 10.205 67.0912 10.4184C67.5178 10.6317 68.0085 10.7384 68.5632 10.7384C69.0432 10.7384 69.4752 10.6637 69.8592 10.5144C70.2432 10.365 70.5845 10.1304 70.8832 9.81037L71.9552 11.0424C71.5712 11.4904 71.0858 11.837 70.4992 12.0824C69.9232 12.317 69.2618 12.4344 68.5152 12.4344Z" fill="#F4F4F4"/>
<path d="M57.7556 12.3223L54.0916 3.77832H56.1716L59.3236 11.3143H58.2996L61.5636 3.77832H63.4836L59.8196 12.3223H57.7556Z" fill="#F4F4F4"/>
<path d="M49.2454 12.4344C48.3707 12.4344 47.5921 12.2477 46.9094 11.8744C46.2267 11.4904 45.6881 10.9677 45.2934 10.3064C44.8987 9.64504 44.7014 8.89304 44.7014 8.05037C44.7014 7.19704 44.8987 6.44504 45.2934 5.79437C45.6881 5.13304 46.2267 4.61571 46.9094 4.24237C47.5921 3.86904 48.3707 3.68237 49.2454 3.68237C50.1307 3.68237 50.9147 3.86904 51.5974 4.24237C52.2907 4.61571 52.8294 5.12771 53.2134 5.77837C53.6081 6.42904 53.8054 7.18637 53.8054 8.05037C53.8054 8.89304 53.6081 9.64504 53.2134 10.3064C52.8294 10.9677 52.2907 11.4904 51.5974 11.8744C50.9147 12.2477 50.1307 12.4344 49.2454 12.4344ZM49.2454 10.7224C49.7361 10.7224 50.1734 10.6157 50.5574 10.4024C50.9414 10.189 51.2401 9.87971 51.4534 9.47437C51.6774 9.06904 51.7894 8.59437 51.7894 8.05037C51.7894 7.49571 51.6774 7.02104 51.4534 6.62637C51.2401 6.22104 50.9414 5.91171 50.5574 5.69837C50.1734 5.48504 49.7414 5.37837 49.2614 5.37837C48.7707 5.37837 48.3334 5.48504 47.9494 5.69837C47.5761 5.91171 47.2774 6.22104 47.0534 6.62637C46.8294 7.02104 46.7174 7.49571 46.7174 8.05037C46.7174 8.59437 46.8294 9.06904 47.0534 9.47437C47.2774 9.87971 47.5761 10.189 47.9494 10.4024C48.3334 10.6157 48.7654 10.7224 49.2454 10.7224Z" fill="#F4F4F4"/>
<path d="M42.1214 12.4344C41.1827 12.4344 40.4574 12.1944 39.9454 11.7144C39.4334 11.2237 39.1774 10.5037 39.1774 9.55438V1.89038H41.1774V9.50638C41.1774 9.91171 41.2787 10.2264 41.4814 10.4504C41.6947 10.6744 41.9881 10.7864 42.3614 10.7864C42.8094 10.7864 43.1827 10.669 43.4814 10.4344L44.0414 11.8584C43.8067 12.0504 43.5187 12.1944 43.1774 12.2904C42.8361 12.3864 42.4841 12.4344 42.1214 12.4344ZM37.7694 5.44238V3.84238H43.4654V5.44238H37.7694Z" fill="#F4F4F4"/>
<path d="M33.311 12.4344C32.5963 12.4344 31.9083 12.3437 31.247 12.1624C30.5963 11.9704 30.079 11.741 29.695 11.4744L30.463 9.95437C30.847 10.1997 31.3057 10.4024 31.839 10.5624C32.3723 10.7224 32.9057 10.8024 33.439 10.8024C34.0683 10.8024 34.5217 10.717 34.799 10.5464C35.087 10.3757 35.231 10.1464 35.231 9.85837C35.231 9.62371 35.135 9.44771 34.943 9.33037C34.751 9.20237 34.5003 9.10637 34.191 9.04237C33.8817 8.97837 33.535 8.91971 33.151 8.86637C32.7777 8.81304 32.399 8.74371 32.015 8.65837C31.6417 8.56237 31.3003 8.42904 30.991 8.25837C30.6817 8.07704 30.431 7.83704 30.239 7.53837C30.047 7.23971 29.951 6.84504 29.951 6.35437C29.951 5.81037 30.1057 5.34104 30.415 4.94637C30.7243 4.54104 31.1563 4.23171 31.711 4.01837C32.2763 3.79437 32.943 3.68237 33.711 3.68237C34.287 3.68237 34.8683 3.74637 35.455 3.87437C36.0417 4.00237 36.527 4.18371 36.911 4.41837L36.143 5.93837C35.7377 5.69304 35.327 5.52771 34.911 5.44237C34.5057 5.34637 34.1003 5.29837 33.695 5.29837C33.087 5.29837 32.6337 5.38904 32.335 5.57037C32.047 5.75171 31.903 5.98104 31.903 6.25837C31.903 6.51437 31.999 6.70637 32.191 6.83437C32.383 6.96237 32.6337 7.06371 32.943 7.13837C33.2523 7.21304 33.5937 7.27704 33.967 7.33037C34.351 7.37304 34.7297 7.44237 35.103 7.53837C35.4763 7.63437 35.8177 7.76771 36.127 7.93837C36.447 8.09837 36.703 8.32771 36.895 8.62637C37.087 8.92504 37.183 9.31437 37.183 9.79437C37.183 10.3277 37.023 10.7917 36.703 11.1864C36.3937 11.581 35.951 11.8904 35.375 12.1144C34.799 12.3277 34.111 12.4344 33.311 12.4344Z" fill="#F4F4F4"/>
<path d="M19.3137 12.4824C18.4391 12.4824 17.6337 12.3437 16.8977 12.0664C16.1724 11.7784 15.5377 11.3784 14.9937 10.8664C14.4497 10.3437 14.0284 9.7304 13.7297 9.0264C13.4311 8.3224 13.2817 7.5544 13.2817 6.7224C13.2817 5.8904 13.4311 5.1224 13.7297 4.4184C14.0284 3.7144 14.4497 3.1064 14.9937 2.5944C15.5484 2.07174 16.1937 1.67174 16.9297 1.3944C17.6657 1.1064 18.4711 0.962402 19.3457 0.962402C20.2951 0.962402 21.1484 1.11707 21.9057 1.4264C22.6737 1.73574 23.3191 2.18907 23.8417 2.7864L22.5297 4.0664C22.0924 3.62907 21.6177 3.30907 21.1057 3.1064C20.6044 2.89307 20.0497 2.7864 19.4417 2.7864C18.8551 2.7864 18.3111 2.8824 17.8097 3.0744C17.3084 3.2664 16.8764 3.5384 16.5137 3.8904C16.1511 4.2424 15.8684 4.6584 15.6657 5.1384C15.4737 5.6184 15.3777 6.1464 15.3777 6.7224C15.3777 7.28774 15.4737 7.8104 15.6657 8.2904C15.8684 8.7704 16.1511 9.19174 16.5137 9.5544C16.8764 9.9064 17.3031 10.1784 17.7937 10.3704C18.2844 10.5624 18.8284 10.6584 19.4257 10.6584C19.9804 10.6584 20.5137 10.5731 21.0257 10.4024C21.5484 10.2211 22.0444 9.9224 22.5137 9.5064L23.6977 11.0584C23.1111 11.5277 22.4284 11.8851 21.6497 12.1304C20.8817 12.3651 20.1031 12.4824 19.3137 12.4824ZM21.7297 10.7864V6.5944H23.6977V11.0584L21.7297 10.7864Z" fill="#F4F4F4"/>
<path d="M4.70679 12.3223V1.12231H6.78679V10.5623H12.6428V12.3223H4.70679Z" fill="#F4F4F4"/>
</svg>
