<svg width="76" height="36" viewBox="0 0 76 36" fill="none" xmlns="http://www.w3.org/2000/svg">
<path d="M70.5156 32.128V23.584H72.4196V25.936L72.1956 25.248C72.4516 24.672 72.8516 24.2347 73.3956 23.936C73.9503 23.6374 74.6383 23.488 75.4596 23.488V25.392C75.3743 25.3707 75.2943 25.36 75.2196 25.36C75.145 25.3494 75.0703 25.344 74.9956 25.344C74.2383 25.344 73.6356 25.568 73.1876 26.016C72.7396 26.4534 72.5156 27.1094 72.5156 27.984V32.128H70.5156Z" fill="#2C2C2D"/>
<path d="M64.0431 32.24C63.1685 32.24 62.3898 32.0534 61.7071 31.68C61.0245 31.296 60.4858 30.7734 60.0911 30.112C59.6965 29.4507 59.4991 28.6987 59.4991 27.856C59.4991 27.0027 59.6965 26.2507 60.0911 25.6C60.4858 24.9387 61.0245 24.4214 61.7071 24.048C62.3898 23.6747 63.1685 23.488 64.0431 23.488C64.9285 23.488 65.7125 23.6747 66.3951 24.048C67.0885 24.4214 67.6271 24.9334 68.0111 25.584C68.4058 26.2347 68.6031 26.992 68.6031 27.856C68.6031 28.6987 68.4058 29.4507 68.0111 30.112C67.6271 30.7734 67.0885 31.296 66.3951 31.68C65.7125 32.0534 64.9285 32.24 64.0431 32.24ZM64.0431 30.528C64.5338 30.528 64.9711 30.4214 65.3551 30.208C65.7391 29.9947 66.0378 29.6854 66.2511 29.28C66.4751 28.8747 66.5871 28.4 66.5871 27.856C66.5871 27.3014 66.4751 26.8267 66.2511 26.432C66.0378 26.0267 65.7391 25.7174 65.3551 25.504C64.9711 25.2907 64.5391 25.184 64.0591 25.184C63.5685 25.184 63.1311 25.2907 62.7471 25.504C62.3738 25.7174 62.0751 26.0267 61.8511 26.432C61.6271 26.8267 61.5151 27.3014 61.5151 27.856C61.5151 28.4 61.6271 28.8747 61.8511 29.28C62.0751 29.6854 62.3738 29.9947 62.7471 30.208C63.1311 30.4214 63.5631 30.528 64.0431 30.528Z" fill="#2C2C2D"/>
<path d="M56.9191 32.24C55.9805 32.24 55.2551 32 54.7431 31.52C54.2311 31.0293 53.9751 30.3093 53.9751 29.36V21.696H55.9751V29.312C55.9751 29.7173 56.0765 30.032 56.2791 30.256C56.4925 30.48 56.7858 30.592 57.1591 30.592C57.6071 30.592 57.9805 30.4746 58.2791 30.24L58.8391 31.664C58.6045 31.856 58.3165 32 57.9751 32.096C57.6338 32.192 57.2818 32.24 56.9191 32.24ZM52.5671 25.248V23.648H58.2631V25.248H52.5671Z" fill="#2C2C2D"/>
<path d="M48.2169 32.24C47.3209 32.24 46.5209 32.0534 45.8169 31.68C45.1236 31.296 44.5796 30.7734 44.1849 30.112C43.7902 29.4507 43.5929 28.6987 43.5929 27.856C43.5929 27.0027 43.7902 26.2507 44.1849 25.6C44.5796 24.9387 45.1236 24.4214 45.8169 24.048C46.5209 23.6747 47.3209 23.488 48.2169 23.488C49.0489 23.488 49.7796 23.6587 50.4089 24C51.0489 24.3307 51.5342 24.8214 51.8649 25.472L50.3289 26.368C50.0729 25.9627 49.7582 25.664 49.3849 25.472C49.0222 25.28 48.6276 25.184 48.2009 25.184C47.7102 25.184 47.2676 25.2907 46.8729 25.504C46.4782 25.7174 46.1689 26.0267 45.9449 26.432C45.7209 26.8267 45.6089 27.3014 45.6089 27.856C45.6089 28.4107 45.7209 28.8907 45.9449 29.296C46.1689 29.6907 46.4782 29.9947 46.8729 30.208C47.2676 30.4214 47.7102 30.528 48.2009 30.528C48.6276 30.528 49.0222 30.432 49.3849 30.24C49.7582 30.048 50.0729 29.7494 50.3289 29.344L51.8649 30.24C51.5342 30.88 51.0489 31.376 50.4089 31.728C49.7796 32.0694 49.0489 32.24 48.2169 32.24Z" fill="#2C2C2D"/>
<path d="M38.3598 32.24C37.4104 32.24 36.5784 32.0534 35.8638 31.68C35.1598 31.296 34.6104 30.7734 34.2158 30.112C33.8318 29.4507 33.6398 28.6987 33.6398 27.856C33.6398 27.0027 33.8264 26.2507 34.1998 25.6C34.5838 24.9387 35.1064 24.4214 35.7678 24.048C36.4398 23.6747 37.2024 23.488 38.0558 23.488C38.8878 23.488 39.6291 23.6694 40.2798 24.032C40.9304 24.3947 41.4424 24.9067 41.8158 25.568C42.1891 26.2294 42.3758 27.008 42.3758 27.904C42.3758 27.9894 42.3704 28.0854 42.3598 28.192C42.3598 28.2987 42.3544 28.4 42.3438 28.496H35.2238V27.168H41.2878L40.5038 27.584C40.5144 27.0934 40.4131 26.6614 40.1998 26.288C39.9864 25.9147 39.6931 25.6214 39.3198 25.408C38.9571 25.1947 38.5358 25.088 38.0558 25.088C37.5651 25.088 37.1331 25.1947 36.7598 25.408C36.3971 25.6214 36.1091 25.92 35.8958 26.304C35.6931 26.6774 35.5918 27.12 35.5918 27.632V27.952C35.5918 28.464 35.7091 28.9174 35.9438 29.312C36.1784 29.7067 36.5091 30.0107 36.9358 30.224C37.3624 30.4374 37.8531 30.544 38.4078 30.544C38.8878 30.544 39.3198 30.4694 39.7038 30.32C40.0878 30.1707 40.4291 29.936 40.7278 29.616L41.7998 30.848C41.4158 31.296 40.9304 31.6427 40.3438 31.888C39.7678 32.1227 39.1064 32.24 38.3598 32.24Z" fill="#2C2C2D"/>
<path d="M31.0598 32.24C30.1211 32.24 29.3958 32 28.8838 31.52C28.3718 31.0293 28.1158 30.3093 28.1158 29.36V21.696H30.1158V29.312C30.1158 29.7173 30.2171 30.032 30.4198 30.256C30.6331 30.48 30.9264 30.592 31.2998 30.592C31.7478 30.592 32.1211 30.4746 32.4198 30.24L32.9798 31.664C32.7451 31.856 32.4571 32 32.1158 32.096C31.7744 32.192 31.4224 32.24 31.0598 32.24ZM26.7078 25.248V23.648H32.4038V25.248H26.7078Z" fill="#2C2C2D"/>
<path d="M21.3713 32.24C20.4966 32.24 19.7179 32.0534 19.0353 31.68C18.3526 31.296 17.8139 30.7734 17.4193 30.112C17.0246 29.4507 16.8273 28.6987 16.8273 27.856C16.8273 27.0027 17.0246 26.2507 17.4193 25.6C17.8139 24.9387 18.3526 24.4214 19.0353 24.048C19.7179 23.6747 20.4966 23.488 21.3713 23.488C22.2566 23.488 23.0406 23.6747 23.7233 24.048C24.4166 24.4214 24.9553 24.9334 25.3393 25.584C25.7339 26.2347 25.9313 26.992 25.9313 27.856C25.9313 28.6987 25.7339 29.4507 25.3393 30.112C24.9553 30.7734 24.4166 31.296 23.7233 31.68C23.0406 32.0534 22.2566 32.24 21.3713 32.24ZM21.3713 30.528C21.8619 30.528 22.2993 30.4214 22.6833 30.208C23.0673 29.9947 23.3659 29.6854 23.5793 29.28C23.8033 28.8747 23.9153 28.4 23.9153 27.856C23.9153 27.3014 23.8033 26.8267 23.5793 26.432C23.3659 26.0267 23.0673 25.7174 22.6833 25.504C22.2993 25.2907 21.8673 25.184 21.3873 25.184C20.8966 25.184 20.4593 25.2907 20.0753 25.504C19.7019 25.7174 19.4033 26.0267 19.1793 26.432C18.9553 26.8267 18.8433 27.3014 18.8433 27.856C18.8433 28.4 18.9553 28.8747 19.1793 29.28C19.4033 29.6854 19.7019 29.9947 20.0753 30.208C20.4593 30.4214 20.8913 30.528 21.3713 30.528Z" fill="#2C2C2D"/>
<path d="M10.9688 32.128V23.584H12.8727V25.936L12.6488 25.248C12.9048 24.672 13.3048 24.2347 13.8488 23.936C14.4034 23.6374 15.0914 23.488 15.9128 23.488V25.392C15.8274 25.3707 15.7474 25.36 15.6728 25.36C15.5981 25.3494 15.5234 25.344 15.4487 25.344C14.6914 25.344 14.0888 25.568 13.6408 26.016C13.1928 26.4534 12.9688 27.1094 12.9688 27.984V32.128H10.9688Z" fill="#2C2C2D"/>
<path d="M4.736 32.24C4.04267 32.24 3.408 32.08 2.832 31.76C2.26667 31.44 1.81333 30.96 1.472 30.32C1.14133 29.6694 0.976 28.848 0.976 27.856C0.976 26.8534 1.136 26.032 1.456 25.392C1.78667 24.752 2.23467 24.2774 2.8 23.968C3.36533 23.648 4.01067 23.488 4.736 23.488C5.57867 23.488 6.32 23.6694 6.96 24.032C7.61067 24.3947 8.12267 24.9014 8.496 25.552C8.88 26.2027 9.072 26.9707 9.072 27.856C9.072 28.7414 8.88 29.5147 8.496 30.176C8.12267 30.8267 7.61067 31.3334 6.96 31.696C6.32 32.0587 5.57867 32.24 4.736 32.24ZM0 35.232V23.584H1.904V25.6L1.84 27.872L2 30.144V35.232H0ZM4.512 30.528C4.992 30.528 5.41867 30.4214 5.792 30.208C6.176 29.9947 6.48 29.6854 6.704 29.28C6.928 28.8747 7.04 28.4 7.04 27.856C7.04 27.3014 6.928 26.8267 6.704 26.432C6.48 26.0267 6.176 25.7174 5.792 25.504C5.41867 25.2907 4.992 25.184 4.512 25.184C4.032 25.184 3.6 25.2907 3.216 25.504C2.832 25.7174 2.528 26.0267 2.304 26.432C2.08 26.8267 1.968 27.3014 1.968 27.856C1.968 28.4 2.08 28.8747 2.304 29.28C2.528 29.6854 2.832 29.9947 3.216 30.208C3.6 30.4214 4.032 30.528 4.512 30.528Z" fill="#2C2C2D"/>
<path d="M67.6488 12.24C66.6995 12.24 65.8675 12.0533 65.1528 11.68C64.4488 11.296 63.8995 10.7733 63.5048 10.112C63.1208 9.45064 62.9288 8.69864 62.9288 7.85598C62.9288 7.00264 63.1155 6.25064 63.4888 5.59998C63.8728 4.93864 64.3955 4.42131 65.0568 4.04798C65.7288 3.67464 66.4915 3.48798 67.3448 3.48798C68.1768 3.48798 68.9182 3.66931 69.5688 4.03198C70.2195 4.39464 70.7315 4.90664 71.1048 5.56798C71.4782 6.22931 71.6648 7.00798 71.6648 7.90398C71.6648 7.98931 71.6595 8.08531 71.6488 8.19198C71.6488 8.29864 71.6435 8.39998 71.6328 8.49598H64.5128V7.16798H70.5768L69.7928 7.58398C69.8035 7.09331 69.7022 6.66131 69.4888 6.28798C69.2755 5.91464 68.9822 5.62131 68.6088 5.40798C68.2462 5.19464 67.8248 5.08798 67.3448 5.08798C66.8542 5.08798 66.4222 5.19464 66.0488 5.40798C65.6862 5.62131 65.3982 5.91998 65.1848 6.30398C64.9822 6.67731 64.8808 7.11998 64.8808 7.63198V7.95198C64.8808 8.46398 64.9982 8.91731 65.2328 9.31198C65.4675 9.70664 65.7982 10.0106 66.2248 10.224C66.6515 10.4373 67.1422 10.544 67.6968 10.544C68.1768 10.544 68.6088 10.4693 68.9928 10.32C69.3768 10.1706 69.7182 9.93598 70.0168 9.61598L71.0888 10.848C70.7048 11.296 70.2195 11.6426 69.6328 11.888C69.0568 12.1226 68.3955 12.24 67.6488 12.24Z" fill="#2C2C2D"/>
<path d="M56.8892 12.128L53.2252 3.58398H55.3052L58.4572 11.12H57.4332L60.6972 3.58398H62.6172L58.9532 12.128H56.8892Z" fill="#2C2C2D"/>
<path d="M48.3791 12.24C47.5044 12.24 46.7257 12.0533 46.0431 11.68C45.3604 11.296 44.8217 10.7733 44.4271 10.112C44.0324 9.45064 43.8351 8.69864 43.8351 7.85598C43.8351 7.00264 44.0324 6.25064 44.4271 5.59998C44.8217 4.93864 45.3604 4.42131 46.0431 4.04798C46.7257 3.67464 47.5044 3.48798 48.3791 3.48798C49.2644 3.48798 50.0484 3.67464 50.7311 4.04798C51.4244 4.42131 51.9631 4.93331 52.3471 5.58398C52.7418 6.23464 52.9391 6.99198 52.9391 7.85598C52.9391 8.69864 52.7418 9.45064 52.3471 10.112C51.9631 10.7733 51.4244 11.296 50.7311 11.68C50.0484 12.0533 49.2644 12.24 48.3791 12.24ZM48.3791 10.528C48.8697 10.528 49.3071 10.4213 49.6911 10.208C50.0751 9.99464 50.3737 9.68531 50.5871 9.27998C50.8111 8.87464 50.9231 8.39998 50.9231 7.85598C50.9231 7.30131 50.8111 6.82664 50.5871 6.43198C50.3737 6.02664 50.0751 5.71731 49.6911 5.50398C49.3071 5.29064 48.8751 5.18398 48.3951 5.18398C47.9044 5.18398 47.4671 5.29064 47.0831 5.50398C46.7097 5.71731 46.4111 6.02664 46.1871 6.43198C45.9631 6.82664 45.8511 7.30131 45.8511 7.85598C45.8511 8.39998 45.9631 8.87464 46.1871 9.27998C46.4111 9.68531 46.7097 9.99464 47.0831 10.208C47.4671 10.4213 47.8991 10.528 48.3791 10.528Z" fill="#2C2C2D"/>
<path d="M41.2551 12.24C40.3164 12.24 39.5911 12 39.0791 11.52C38.5671 11.0293 38.3111 10.3093 38.3111 9.35998V1.69598H40.3111V9.31198C40.3111 9.71732 40.4124 10.032 40.6151 10.256C40.8284 10.48 41.1217 10.592 41.4951 10.592C41.9431 10.592 42.3164 10.4747 42.6151 10.24L43.1751 11.664C42.9404 11.856 42.6524 12 42.3111 12.096C41.9697 12.192 41.6177 12.24 41.2551 12.24ZM36.9031 5.24798V3.64798H42.5991V5.24798H36.9031Z" fill="#2C2C2D"/>
<path d="M32.4447 12.24C31.73 12.24 31.042 12.1493 30.3807 11.968C29.73 11.776 29.2127 11.5466 28.8287 11.28L29.5967 9.75998C29.9807 10.0053 30.4393 10.208 30.9727 10.368C31.506 10.528 32.0393 10.608 32.5727 10.608C33.202 10.608 33.6553 10.5226 33.9327 10.352C34.2207 10.1813 34.3647 9.95198 34.3647 9.66398C34.3647 9.42931 34.2687 9.25331 34.0767 9.13598C33.8847 9.00798 33.634 8.91198 33.3247 8.84798C33.0153 8.78398 32.6687 8.72531 32.2847 8.67198C31.9113 8.61864 31.5327 8.54931 31.1487 8.46398C30.7753 8.36798 30.434 8.23464 30.1247 8.06398C29.8153 7.88264 29.5647 7.64264 29.3727 7.34398C29.1807 7.04531 29.0847 6.65064 29.0847 6.15998C29.0847 5.61598 29.2393 5.14664 29.5487 4.75198C29.858 4.34664 30.29 4.03731 30.8447 3.82398C31.41 3.59998 32.0767 3.48798 32.8447 3.48798C33.4207 3.48798 34.002 3.55198 34.5887 3.67998C35.1753 3.80798 35.6607 3.98931 36.0447 4.22398L35.2767 5.74398C34.8713 5.49864 34.4607 5.33331 34.0447 5.24798C33.6393 5.15198 33.234 5.10398 32.8287 5.10398C32.2207 5.10398 31.7673 5.19464 31.4687 5.37598C31.1807 5.55731 31.0367 5.78664 31.0367 6.06398C31.0367 6.31998 31.1327 6.51198 31.3247 6.63998C31.5167 6.76798 31.7673 6.86931 32.0767 6.94398C32.386 7.01864 32.7273 7.08264 33.1007 7.13598C33.4847 7.17864 33.8633 7.24798 34.2367 7.34398C34.61 7.43998 34.9513 7.57331 35.2607 7.74398C35.5807 7.90398 35.8367 8.13331 36.0287 8.43198C36.2207 8.73064 36.3167 9.11998 36.3167 9.59998C36.3167 10.1333 36.1567 10.5973 35.8367 10.992C35.5273 11.3866 35.0847 11.696 34.5087 11.92C33.9327 12.1333 33.2447 12.24 32.4447 12.24Z" fill="#2C2C2D"/>
<path d="M18.4475 12.288C17.5728 12.288 16.7675 12.1493 16.0315 11.872C15.3061 11.584 14.6715 11.184 14.1275 10.672C13.5835 10.1493 13.1621 9.53601 12.8635 8.83201C12.5648 8.12801 12.4155 7.36001 12.4155 6.52801C12.4155 5.69601 12.5648 4.92801 12.8635 4.22401C13.1621 3.52001 13.5835 2.91201 14.1275 2.40001C14.6821 1.87734 15.3275 1.47734 16.0635 1.20001C16.7995 0.912005 17.6048 0.768005 18.4795 0.768005C19.4288 0.768005 20.2821 0.922672 21.0395 1.23201C21.8075 1.54134 22.4528 1.99467 22.9755 2.59201L21.6635 3.87201C21.2261 3.43467 20.7515 3.11467 20.2395 2.91201C19.7381 2.69867 19.1835 2.59201 18.5755 2.59201C17.9888 2.59201 17.4448 2.68801 16.9435 2.88001C16.4421 3.07201 16.0101 3.34401 15.6475 3.69601C15.2848 4.04801 15.0021 4.46401 14.7995 4.94401C14.6075 5.42401 14.5115 5.95201 14.5115 6.52801C14.5115 7.09334 14.6075 7.61601 14.7995 8.09601C15.0021 8.57601 15.2848 8.99734 15.6475 9.36001C16.0101 9.71201 16.4368 9.98401 16.9275 10.176C17.4181 10.368 17.9621 10.464 18.5595 10.464C19.1141 10.464 19.6475 10.3787 20.1595 10.208C20.6821 10.0267 21.1781 9.72801 21.6475 9.31201L22.8315 10.864C22.2448 11.3333 21.5621 11.6907 20.7835 11.936C20.0155 12.1707 19.2368 12.288 18.4475 12.288ZM20.8635 10.592V6.40001H22.8315V10.864L20.8635 10.592Z" fill="#EA1717"/>
<path d="M3.84045 12.128V0.927979H5.92045V10.368H11.7765V12.128H3.84045Z" fill="#EA1717"/>
</svg>
