<svg width="20" height="21" viewBox="0 0 20 21" fill="none" xmlns="http://www.w3.org/2000/svg">
<g clip-path="url(#clip0_22_4749)">
<path d="M17.7778 0.913818C18.3671 0.913818 18.9324 1.14794 19.3491 1.56469C19.7659 1.98144 20 2.54667 20 3.13604V18.6916C20 19.281 19.7659 19.8462 19.3491 20.2629C18.9324 20.6797 18.3671 20.9138 17.7778 20.9138H2.22222C1.63285 20.9138 1.06762 20.6797 0.650874 20.2629C0.234126 19.8462 0 19.281 0 18.6916V3.13604C0 2.54667 0.234126 1.98144 0.650874 1.56469C1.06762 1.14794 1.63285 0.913818 2.22222 0.913818H17.7778ZM17.2222 18.136V12.2472C17.2222 11.2865 16.8406 10.3652 16.1613 9.68585C15.482 9.00656 14.5607 8.62493 13.6 8.62493C12.6556 8.62493 11.5556 9.20271 11.0222 10.0694V8.83604H7.92222V18.136H11.0222V12.6583C11.0222 11.8027 11.7111 11.1027 12.5667 11.1027C12.9792 11.1027 13.3749 11.2666 13.6666 11.5583C13.9583 11.85 14.1222 12.2457 14.1222 12.6583V18.136H17.2222ZM4.31111 7.0916C4.80618 7.0916 5.28098 6.89493 5.63104 6.54486C5.98111 6.19479 6.17778 5.72 6.17778 5.22493C6.17778 4.1916 5.34444 3.34715 4.31111 3.34715C3.81309 3.34715 3.33547 3.54499 2.98332 3.89714C2.63117 4.24929 2.43333 4.72691 2.43333 5.22493C2.43333 6.25826 3.27778 7.0916 4.31111 7.0916ZM5.85556 18.136V8.83604H2.77778V18.136H5.85556Z" fill="#EA1717"/>
</g>
<defs>
<clipPath id="clip0_22_4749">
<rect width="20" height="20" fill="white" transform="translate(0 0.913818)"/>
</clipPath>
</defs>
</svg>
